<svg width="22" height="22" viewBox="0 0 22 22" fill="none" xmlns="http://www.w3.org/2000/svg">
<path d="M5.9941 9.94299L14.2444 3.0677C14.5249 2.8357 14.8859 2.7243 15.2483 2.75789C15.6108 2.79148 15.9451 2.96733 16.1782 3.24692C16.4112 3.52651 16.524 3.88707 16.4918 4.24962C16.4595 4.61218 16.2849 4.94719 16.0062 5.1813L9.02352 10.9998L16.0062 16.8184C16.286 17.0522 16.4616 17.3874 16.4943 17.7506C16.5271 18.1137 16.4143 18.475 16.1809 18.755C15.9474 19.0351 15.6124 19.2111 15.2493 19.2442C14.8862 19.2774 14.5248 19.1651 14.2444 18.932L5.9941 12.0566C5.8394 11.9274 5.71496 11.7657 5.62957 11.5831C5.54418 11.4005 5.49993 11.2014 5.49993 10.9998C5.49993 10.7982 5.54418 10.5991 5.62957 10.4165C5.71496 10.2339 5.8394 10.0722 5.9941 9.94299Z" fill="white"/>
</svg>
