<svg width="32" height="32" viewBox="0 0 32 32" fill="none" xmlns="http://www.w3.org/2000/svg">
<path d="M27 27H5.00003C4.82956 26.9995 4.66206 26.9554 4.51343 26.8719C4.36479 26.7885 4.23996 26.6684 4.15079 26.5231C4.06162 26.3778 4.01106 26.2122 4.00393 26.0419C3.99679 25.8715 4.03332 25.7022 4.11003 25.55C5.34389 23.0631 5.99049 20.3262 6.00003 17.55V14C6.00003 11.3478 7.05359 8.8043 8.92896 6.92893C10.8043 5.05357 13.3479 4 16 4C18.6522 4 21.1957 5.05357 23.0711 6.92893C24.9465 8.8043 26 11.3478 26 14V17.53C26.0096 20.3062 26.6562 23.0431 27.89 25.53C27.9715 25.6829 28.0118 25.8544 28.007 26.0276C28.0022 26.2008 27.9525 26.3697 27.8628 26.5179C27.7731 26.6661 27.6464 26.7885 27.4951 26.873C27.3439 26.9575 27.1733 27.0013 27 27ZM6.55003 25H25.45C24.4964 22.6248 24.0043 20.0895 24 17.53V14C24 11.8783 23.1572 9.84344 21.6569 8.34315C20.1566 6.84285 18.1218 6 16 6C13.8783 6 11.8435 6.84285 10.3432 8.34315C8.84288 9.84344 8.00003 11.8783 8.00003 14V17.53C7.99575 20.0895 7.50364 22.6248 6.55003 25Z" fill="white"/>
<path d="M16 31C14.6739 31 13.4021 30.4732 12.4645 29.5355C11.5268 28.5979 11 27.3261 11 26C11 25.7348 11.1054 25.4804 11.2929 25.2929C11.4804 25.1054 11.7348 25 12 25C12.2652 25 12.5196 25.1054 12.7071 25.2929C12.8946 25.4804 13 25.7348 13 26C13.0007 26.7954 13.3172 27.5579 13.88 28.12C14.4523 28.663 15.2111 28.9657 16 28.9657C16.7889 28.9657 17.5477 28.663 18.12 28.12C18.2132 28.0268 18.3239 27.9528 18.4458 27.9023C18.5676 27.8519 18.6981 27.8259 18.83 27.8259C18.9619 27.8259 19.0924 27.8519 19.2142 27.9023C19.3361 27.9528 19.4468 28.0268 19.54 28.12C19.6332 28.2132 19.7072 28.3239 19.7577 28.4458C19.8081 28.5676 19.8341 28.6981 19.8341 28.83C19.8341 28.9619 19.8081 29.0924 19.7577 29.2142C19.7072 29.3361 19.6332 29.4468 19.54 29.54C19.0748 30.004 18.5227 30.3718 17.9153 30.6223C17.3079 30.8728 16.657 31.0012 16 31Z" fill="white"/>
<path d="M16 6C15.7348 6 15.4804 5.89464 15.2929 5.70711C15.1054 5.51957 15 5.26522 15 5V2C15 1.73478 15.1054 1.48043 15.2929 1.29289C15.4804 1.10536 15.7348 1 16 1C16.2652 1 16.5196 1.10536 16.7071 1.29289C16.8946 1.48043 17 1.73478 17 2V5C17 5.26522 16.8946 5.51957 16.7071 5.70711C16.5196 5.89464 16.2652 6 16 6Z" fill="white"/>
</svg>
