<svg width="18" height="18" viewBox="0 0 18 18" fill="none" xmlns="http://www.w3.org/2000/svg">
<path d="M15.825 2.17502C15 1.35002 13.575 1.35002 12.675 2.17502L6.59999 8.10002C6.07499 8.62502 5.69999 9.30002 5.54999 10.05L5.24999 11.7C5.17499 11.925 5.24999 12.225 5.47499 12.375C5.62499 12.525 5.77499 12.6 5.99999 12.6C6.07499 12.6 6.07499 12.6 6.14999 12.6L7.79999 12.3C8.54999 12.15 9.22499 11.775 9.74999 11.25L15.825 5.25002C16.275 4.87502 16.5 4.27502 16.5 3.67502C16.5 3.07502 16.275 2.55002 15.825 2.17502ZM8.77499 10.125C8.47499 10.425 8.02499 10.65 7.57499 10.725L6.97499 10.875L7.12499 10.35C7.19999 9.90002 7.42499 9.52502 7.79999 9.15002L12.45 4.57502L13.5 5.55002L8.77499 10.125ZM14.775 4.20002L14.475 4.50002L13.425 3.52502L13.725 3.22502C13.875 3.07502 14.1 3.00002 14.25 3.00002C14.475 3.00002 14.625 3.07502 14.775 3.22502C14.925 3.37502 15 3.52502 15 3.67502C15 3.82502 15 4.05002 14.775 4.20002Z" fill="white"/>
<path d="M15 7.425C14.55 7.425 14.25 7.725 14.25 8.175V12C14.25 13.275 13.275 14.25 12 14.25H6C4.725 14.25 3.75 13.275 3.75 12V6C3.75 4.725 4.725 3.75 6 3.75H9.75C10.2 3.75 10.5 3.45 10.5 3C10.5 2.55 10.2 2.25 9.75 2.25H6C3.9 2.25 2.25 3.9 2.25 6V12C2.25 14.1 3.9 15.75 6 15.75H12C14.1 15.75 15.75 14.1 15.75 12V8.175C15.75 7.8 15.45 7.425 15 7.425Z" fill="white"/>
</svg>
