<svg width="93" height="93" viewBox="0 0 93 93" fill="none" xmlns="http://www.w3.org/2000/svg">
<path d="M40.6889 6.2615C49.0844 5.13086 57.6241 6.62853 65.1338 10.5486C72.6435 14.4687 78.7546 20.6187 82.6269 28.1532C86.4992 35.6877 87.9426 44.2367 86.7587 52.6248C85.5747 61.013 81.8215 68.8285 76.0152 74.9969C70.2088 81.1652 62.6342 85.3836 54.3329 87.072C46.0316 88.7605 37.411 87.8361 29.6564 84.426C21.9018 81.0158 15.3939 75.2874 11.0274 68.0281C6.66081 60.7689 4.65006 52.3353 5.27153 43.8869L6.3437 43.9657C5.73853 52.1927 7.69655 60.4051 11.9486 67.474C16.2006 74.5429 22.5379 80.1211 30.0892 83.4418C37.6405 86.7626 46.035 87.6627 54.1186 86.0186C62.2023 84.3744 69.5782 80.2666 75.2324 74.26C80.8865 68.2534 84.5412 60.6428 85.6941 52.4746C86.847 44.3064 85.4415 35.9815 81.6707 28.6446C77.8999 21.3077 71.9491 15.319 64.6363 11.5017C57.3235 7.68436 49.0078 6.22595 40.8324 7.32694L40.6889 6.2615Z" fill="#EB7F35"/>
<rect x="8" y="9" width="76" height="76" rx="38" fill="#300F51"/>
</svg>
