<svg width="12" height="18" viewBox="0 0 12 18" fill="none" xmlns="http://www.w3.org/2000/svg">
<g clip-path="url(#clip0_1_1235)">
<mask id="path-1-inside-1_1_1235" fill="white">
<path d="M0 17.9999L6 13.9999L12 17.9999"/>
</mask>
<path d="M-0.5547 17.1679C-1.01423 17.4742 -1.1384 18.0951 -0.83205 18.5546C-0.525698 19.0142 0.0951715 19.1383 0.5547 18.832L-0.5547 17.1679ZM6 13.9999L6.5547 13.1679C6.2188 12.944 5.7812 12.944 5.4453 13.1679L6 13.9999ZM11.4453 18.832C11.9048 19.1383 12.5257 19.0142 12.8321 18.5546C13.1384 18.0951 13.0142 17.4742 12.5547 17.1679L11.4453 18.832ZM0.5547 18.832L6.5547 14.832L5.4453 13.1679L-0.5547 17.1679L0.5547 18.832ZM5.4453 14.832L11.4453 18.832L12.5547 17.1679L6.5547 13.1679L5.4453 14.832Z" fill="white" mask="url(#path-1-inside-1_1_1235)"/>
<path d="M0.600098 17.7L2.4001 10.5" stroke="white" stroke-linecap="square" stroke-linejoin="round"/>
<path d="M11.4001 17.7L9.6001 10.5" stroke="white" stroke-linecap="square" stroke-linejoin="round"/>
<path d="M11.2 5.99999C11.2 8.87187 8.87193 11.2 6.00005 11.2C3.12817 11.2 0.800049 8.87187 0.800049 5.99999C0.800049 3.12811 3.12817 0.799988 6.00005 0.799988C8.87193 0.799988 11.2 3.12811 11.2 5.99999Z" stroke="white" stroke-linecap="round" stroke-linejoin="round"/>
<path d="M7.08223 5.17887L7.08221 5.17904L7.09521 5.17958L8.23875 5.22723L7.31959 5.98653L7.307 5.99729C7.19161 6.09922 7.10615 6.23065 7.05979 6.37746L7.53658 6.52803L7.05979 6.37746C7.01342 6.52428 7.00791 6.68095 7.04383 6.83066L7.0474 6.84465L7.3497 7.96149L6.46164 7.33701L6.46165 7.337L6.45834 7.33472C6.32364 7.2416 6.16378 7.19173 6.00003 7.19173C5.83677 7.19173 5.67736 7.24131 5.54291 7.33389C5.54251 7.33416 5.54211 7.33444 5.54172 7.33472L4.64779 7.94699L4.95266 6.82065L4.95623 6.80667C4.99215 6.65695 4.98664 6.50028 4.94027 6.35346C4.89391 6.20665 4.80845 6.07522 4.69306 5.97329L4.68047 5.96253L3.76921 5.20975L4.89728 5.17984C4.90414 5.17966 4.91099 5.17933 4.91783 5.17887C5.08009 5.16787 5.23531 5.10841 5.36338 5.00818C5.48922 4.90969 5.58316 4.77631 5.63351 4.62478L6.00003 3.5816L6.36655 4.62478C6.4169 4.77631 6.51084 4.90969 6.63668 5.00818L6.91849 4.64809L6.63668 5.00818C6.76475 5.10841 6.91997 5.16787 7.08223 5.17887ZM7.65726 8.40078L7.66769 8.41452L7.65726 8.40078Z" stroke="white" stroke-linecap="round" stroke-linejoin="round"/>
</g>
<defs>
<clipPath id="clip0_1_1235">
<rect width="12" height="18" fill="white"/>
</clipPath>
</defs>
</svg>
