<svg width="26" height="26" viewBox="0 0 26 26" xmlns="http://www.w3.org/2000/svg" fill="#6A5287">
<path d="M24.375 12.1875C24.2057 12.1864 24.041 12.1325 23.9038 12.0332L13 4.24941L2.09629 12.0332C1.92136 12.1368 1.71395 12.171 1.515 12.1292C1.31604 12.0873 1.14001 11.9724 1.02165 11.8071C0.903283 11.6418 0.851192 11.4381 0.875657 11.2363C0.900122 11.0345 0.999364 10.8491 1.15379 10.7169L12.5288 2.59191C12.6664 2.49393 12.8311 2.44128 13 2.44128C13.169 2.44128 13.3337 2.49393 13.4713 2.59191L24.8463 10.7169C24.985 10.8173 25.0885 10.959 25.1418 11.1217C25.1952 11.2845 25.1958 11.4599 25.1436 11.623C25.0913 11.7861 24.9889 11.9285 24.8508 12.0299C24.7128 12.1313 24.5463 12.1864 24.375 12.1875Z" />
<path d="M4.0625 7.3125C3.84701 7.3125 3.64035 7.2269 3.48798 7.07452C3.3356 6.92215 3.25 6.71549 3.25 6.5V3.25C3.25 3.03451 3.3356 2.82785 3.48798 2.67548C3.64035 2.5231 3.84701 2.4375 4.0625 2.4375H7.3125C7.52799 2.4375 7.73465 2.5231 7.88702 2.67548C8.0394 2.82785 8.125 3.03451 8.125 3.25C8.125 3.46549 8.0394 3.67215 7.88702 3.82452C7.73465 3.9769 7.52799 4.0625 7.3125 4.0625H4.875V6.5C4.875 6.71549 4.7894 6.92215 4.63702 7.07452C4.48465 7.2269 4.27799 7.3125 4.0625 7.3125Z" />
<path d="M20.3125 23.5625H16.25C16.0345 23.5625 15.8278 23.4769 15.6755 23.3245C15.5231 23.1722 15.4375 22.9655 15.4375 22.75V17.0625H10.5625V22.75C10.5625 22.9655 10.4769 23.1722 10.3245 23.3245C10.1722 23.4769 9.96549 23.5625 9.75 23.5625H5.6875C5.04103 23.5625 4.42105 23.3057 3.96393 22.8486C3.50681 22.3915 3.25 21.7715 3.25 21.125V13C3.25 12.7845 3.3356 12.5778 3.48798 12.4255C3.64035 12.2731 3.84701 12.1875 4.0625 12.1875C4.27799 12.1875 4.48465 12.2731 4.63702 12.4255C4.7894 12.5778 4.875 12.7845 4.875 13V21.125C4.875 21.3405 4.9606 21.5472 5.11298 21.6995C5.26535 21.8519 5.47201 21.9375 5.6875 21.9375H8.9375V16.25C8.9375 16.0345 9.0231 15.8278 9.17548 15.6755C9.32785 15.5231 9.53451 15.4375 9.75 15.4375H16.25C16.4655 15.4375 16.6722 15.5231 16.8245 15.6755C16.9769 15.8278 17.0625 16.0345 17.0625 16.25V21.9375H20.3125C20.528 21.9375 20.7347 21.8519 20.887 21.6995C21.0394 21.5472 21.125 21.3405 21.125 21.125V13C21.125 12.7845 21.2106 12.5778 21.363 12.4255C21.5153 12.2731 21.722 12.1875 21.9375 12.1875C22.153 12.1875 22.3597 12.2731 22.512 12.4255C22.6644 12.5778 22.75 12.7845 22.75 13V21.125C22.75 21.7715 22.4932 22.3915 22.0361 22.8486C21.579 23.3057 20.959 23.5625 20.3125 23.5625Z" />
</svg>
