<svg width="22" height="22" viewBox="0 0 22 22" fill="none" xmlns="http://www.w3.org/2000/svg">
<g clip-path="url(#clip0_1_1256)">
<path d="M4.63098 5.41566C4.53427 5.42405 4.44484 5.47045 4.38229 5.54469C4.31974 5.61892 4.28918 5.71493 4.29731 5.81166L4.33031 6.20766C4.33857 6.29907 4.38082 6.38407 4.44871 6.44585C4.5166 6.50763 4.60519 6.5417 4.69698 6.54132H4.72998C4.7782 6.53718 4.82513 6.52353 4.86805 6.50116C4.91097 6.47879 4.94904 6.44815 4.98006 6.41099C5.01108 6.37384 5.03443 6.33091 5.04878 6.28468C5.06312 6.23845 5.06818 6.18985 5.06364 6.14166L5.02698 5.74932C5.01858 5.65262 4.97218 5.56318 4.89795 5.50064C4.82371 5.43809 4.72771 5.40753 4.63098 5.41566Z" fill="white"/>
<path d="M18.7844 12.5437L17.9007 11.66C18.4638 11.0187 18.8358 10.2323 18.9746 9.39018C19.1133 8.54807 19.0132 7.68393 18.6856 6.89584C18.358 6.10776 17.816 5.42729 17.1212 4.93169C16.4264 4.43608 15.6065 4.14518 14.7547 4.092L14.784 3.388C14.7894 3.27134 14.7717 3.15475 14.7317 3.045C14.6918 2.93524 14.6305 2.83449 14.5514 2.74857C14.4723 2.66265 14.377 2.59326 14.2709 2.54441C14.1648 2.49557 14.0501 2.46824 13.9334 2.464L6.42771 2.11933C6.31133 2.11342 6.19494 2.13058 6.08523 2.16982C5.97551 2.20906 5.87464 2.26962 5.78842 2.348C5.7022 2.42638 5.63233 2.52104 5.58284 2.62653C5.53335 2.73202 5.50521 2.84626 5.50004 2.96267L5.45237 4.03333L3.74004 4.18367C3.5074 4.2033 3.29198 4.31419 3.14084 4.49213C2.9897 4.67006 2.91511 4.90058 2.93337 5.13333L4.03337 17.545C4.05481 17.779 4.16778 17.995 4.34769 18.146C4.52761 18.2971 4.75991 18.371 4.99404 18.3517L10.0614 17.908L11.7334 19.5983C11.8534 19.7177 12.0026 19.8037 12.166 19.8477C12.3293 19.8917 12.5014 19.8917 12.6647 19.8477L17.1527 18.645C17.3155 18.6016 17.4639 18.5161 17.583 18.397C17.7021 18.2779 17.7877 18.1294 17.831 17.9667L19.0337 13.4823C19.0778 13.3177 19.0779 13.1445 19.0342 12.9798C18.9904 12.8151 18.9043 12.6647 18.7844 12.5437ZM17.3874 11.1467L16.9144 10.6737C17.0686 10.4848 17.2014 10.2794 17.3104 10.0613L17.941 10.285C17.7945 10.595 17.6084 10.8846 17.3874 11.1467ZM14.6667 6.23333C15.1058 6.26721 15.5275 6.41938 15.8871 6.67367C16.2467 6.92797 16.5306 7.2749 16.7089 7.67762C16.8871 8.08034 16.9529 8.52382 16.8994 8.96095C16.8458 9.39808 16.6749 9.81255 16.4047 10.1603L15.51 9.26567C15.3899 9.14667 15.2408 9.06107 15.0775 9.01734C14.9141 8.97361 14.7422 8.97327 14.5787 9.01633H14.5384L14.6667 6.23333ZM18.1904 9.59933L17.567 9.37567C17.6334 9.06625 17.6556 8.74899 17.633 8.43333L18.2857 8.316C18.3238 8.74429 18.2878 9.17593 18.1794 9.592L18.1904 9.59933ZM18.1684 7.61567L17.5084 7.73667C17.417 7.4405 17.2837 7.15897 17.1124 6.90067L17.6 6.457C17.8492 6.80673 18.0376 7.19596 18.1574 7.60833L18.1684 7.61567ZM16.104 5.18467C16.4915 5.36979 16.8459 5.61756 17.1527 5.918L16.6394 6.35433C16.4118 6.14361 16.1549 5.967 15.8767 5.83L16.104 5.18467ZM15.4 4.93167L15.1764 5.56233C15.0157 5.52853 14.8527 5.50769 14.6887 5.5L14.718 4.84C14.9477 4.84972 15.176 4.8804 15.4 4.93167ZM6.23337 2.99567C6.23431 2.97544 6.23924 2.95559 6.24786 2.93726C6.25648 2.91894 6.26863 2.90249 6.28362 2.88887C6.2986 2.87524 6.31613 2.86471 6.33519 2.85787C6.35425 2.85103 6.37448 2.84801 6.39471 2.849L13.9077 3.21567C13.9278 3.21613 13.9475 3.22061 13.9658 3.22884C13.9842 3.23706 14.0006 3.24887 14.0143 3.26357C14.028 3.27826 14.0386 3.29555 14.0454 3.3144C14.0523 3.33325 14.0554 3.35329 14.0544 3.37333L13.783 9.24L13.4164 9.339L12.9764 4.29367C12.9549 4.05972 12.842 3.8437 12.6621 3.69263C12.4821 3.54156 12.2498 3.46765 12.0157 3.487L6.18937 3.97467L6.23337 2.99567ZM4.91704 17.633C4.87733 17.6361 4.83796 17.6237 4.8072 17.5984C4.77643 17.5731 4.75666 17.5369 4.75204 17.4973L3.66671 5.08567C3.66365 5.04539 3.67654 5.00552 3.7026 4.97465C3.72867 4.94379 3.76582 4.9244 3.80604 4.92067L12.0817 4.18733C12.1015 4.18584 12.1213 4.18826 12.1401 4.19446C12.1589 4.20066 12.1763 4.21051 12.1913 4.22346C12.2063 4.23641 12.2186 4.25219 12.2275 4.2699C12.2364 4.28762 12.2416 4.30691 12.243 4.32667L12.6977 9.504L11.473 9.83033C11.3832 9.71241 11.2812 9.60426 11.1687 9.50767L8.43337 7.22333C8.39655 7.19225 8.35396 7.16873 8.30804 7.15411C8.26212 7.1395 8.21377 7.13408 8.16575 7.13817C8.11774 7.14225 8.071 7.15576 8.02821 7.17793C7.98542 7.20009 7.94741 7.23047 7.91637 7.26733L5.62104 9.999C5.29111 10.3854 5.12266 10.884 5.15065 11.3913C5.17864 11.8986 5.40094 12.3756 5.77137 12.7233C5.99747 12.9242 6.26747 13.0692 6.55974 13.1469C6.852 13.2246 7.1584 13.2327 7.45437 13.1707C7.35705 13.3527 7.2335 13.5195 7.08771 13.6657C7.03244 13.7183 6.99496 13.7868 6.9805 13.8618C6.96604 13.9367 6.97532 14.0143 7.00704 14.0837C7.03543 14.1469 7.08116 14.2008 7.13892 14.239C7.19667 14.2773 7.2641 14.2985 7.33337 14.3H7.36637L8.49937 14.201L8.19504 15.4C8.15358 15.5599 8.15371 15.7277 8.19543 15.8875C8.23714 16.0473 8.31906 16.1938 8.43337 16.313L9.37571 17.2333L4.91704 17.633ZM8.71204 13.4457L8.11437 13.497C8.15594 13.4269 8.19388 13.3547 8.22804 13.2807C8.2852 13.1677 8.30702 13.0401 8.29068 12.9145C8.27433 12.789 8.22056 12.6712 8.13637 12.5767C8.05441 12.4844 7.94675 12.4187 7.82721 12.388C7.70766 12.3573 7.58166 12.363 7.46537 12.4043C7.26309 12.4787 7.04441 12.4969 6.83262 12.4569C6.62084 12.4168 6.42387 12.3201 6.26271 12.177C6.03438 11.9563 5.89947 11.6564 5.88582 11.3391C5.87218 11.0219 5.98084 10.7115 6.18937 10.472L8.24637 8.019L10.67 10.054L10.0797 10.2117C9.91616 10.2555 9.76704 10.3416 9.64732 10.4613C9.5276 10.581 9.44151 10.7301 9.39771 10.8937L8.71204 13.4457ZM17.1234 17.7723C17.1127 17.8118 17.0918 17.8479 17.0628 17.8768C17.0339 17.9057 16.9979 17.9266 16.9584 17.9373L12.4667 19.14C12.4268 19.1479 12.3856 19.1453 12.347 19.1324C12.3084 19.1196 12.2739 19.0969 12.2467 19.0667L8.96504 15.7667C8.93517 15.7387 8.91357 15.703 8.90258 15.6636C8.89159 15.6241 8.89163 15.5824 8.90271 15.543L10.1054 11.055C10.1161 11.0155 10.137 10.9795 10.1659 10.9505C10.1949 10.9216 10.2309 10.9007 10.2704 10.89L14.7547 9.71667C14.7933 9.70747 14.8335 9.70747 14.872 9.71667C14.9123 9.72792 14.9489 9.74939 14.9784 9.779L18.2784 13.079C18.3079 13.1072 18.3293 13.1429 18.3403 13.1823C18.3512 13.2216 18.3514 13.2632 18.3407 13.3027L17.1234 17.7723Z" fill="white"/>
<path d="M13.5667 13.8527L11.6564 11.946C11.6222 11.9113 11.5815 11.8837 11.5367 11.8648C11.4918 11.8458 11.4437 11.8359 11.395 11.8356C11.3463 11.8352 11.298 11.8445 11.2529 11.8628C11.2078 11.8811 11.1667 11.9082 11.132 11.9423C11.0974 11.9765 11.0698 12.0172 11.0508 12.0621C11.0319 12.1069 11.022 12.1551 11.0216 12.2037C11.0213 12.2524 11.0305 12.3007 11.0488 12.3458C11.0672 12.3909 11.0942 12.432 11.1284 12.4667L13.0387 14.3733C13.0893 14.4252 13.1256 14.4892 13.1442 14.5592C13.1629 14.6292 13.1631 14.7029 13.145 14.773L12.4447 17.38C12.432 17.4267 12.4286 17.4755 12.4348 17.5235C12.441 17.5715 12.4567 17.6178 12.4809 17.6597C12.5051 17.7017 12.5374 17.7384 12.5758 17.7678C12.6143 17.7972 12.6582 17.8187 12.705 17.831C12.7367 17.8348 12.7687 17.8348 12.8004 17.831C12.8832 17.8338 12.9645 17.8086 13.031 17.7593C13.0976 17.71 13.1456 17.6397 13.167 17.5597L13.8674 14.9527C13.9178 14.759 13.9166 14.5556 13.8639 14.3625C13.8111 14.1695 13.7086 13.9937 13.5667 13.8527Z" fill="white"/>
<path d="M17.0097 13.519C16.9839 13.4259 16.9225 13.3468 16.8388 13.2987C16.755 13.2507 16.6557 13.2376 16.5623 13.2623L14.8647 13.7133C14.8182 13.7261 14.7747 13.7478 14.7366 13.7774C14.6985 13.807 14.6667 13.8437 14.6428 13.8856C14.619 13.9275 14.6037 13.9737 14.5977 14.0215C14.5917 14.0693 14.5952 14.1179 14.608 14.1643C14.6295 14.2443 14.6774 14.3147 14.744 14.364C14.8106 14.4132 14.8919 14.4385 14.9747 14.4357C15.0064 14.4393 15.0383 14.4393 15.07 14.4357L16.764 13.981C16.8107 13.9672 16.8542 13.9442 16.8919 13.9134C16.9297 13.8826 16.9609 13.8445 16.9838 13.8015C17.0066 13.7585 17.0207 13.7114 17.0252 13.6629C17.0296 13.6144 17.0243 13.5655 17.0097 13.519Z" fill="white"/>
<path d="M11.1687 16.4597C11.1378 16.6036 11.1417 16.7529 11.1799 16.8951C11.2182 17.0373 11.2897 17.1683 11.3887 17.2773C11.5793 17.4717 11.792 17.4167 11.8617 17.1527C11.8925 17.0087 11.8887 16.8595 11.8504 16.7173C11.8121 16.5751 11.7406 16.4441 11.6417 16.335C11.451 16.1333 11.2383 16.1993 11.1687 16.4597Z" fill="white"/>
<path d="M10.901 13.794C10.9318 13.65 10.928 13.5008 10.8897 13.3586C10.8514 13.2164 10.7799 13.0854 10.681 12.9763C10.4903 12.7857 10.2776 12.8407 10.208 13.101C10.1771 13.245 10.181 13.3942 10.2192 13.5364C10.2575 13.6786 10.329 13.8096 10.428 13.9187C10.6333 14.113 10.8313 14.058 10.901 13.794Z" fill="white"/>
<path d="M11.3667 15.4733C11.3975 15.3294 11.3937 15.1801 11.3554 15.0379C11.3171 14.8958 11.2456 14.7647 11.1467 14.6557C10.956 14.465 10.7433 14.52 10.6737 14.7803C10.6428 14.9243 10.6467 15.0736 10.6849 15.2157C10.7232 15.3579 10.7947 15.4889 10.8937 15.598C11.099 15.7923 11.3117 15.7373 11.3667 15.4733Z" fill="white"/>
<path d="M14.6667 12.199C14.7169 12.1902 14.7634 12.1669 14.8004 12.132C14.8375 12.097 14.8635 12.052 14.8752 12.0024C14.8869 11.9528 14.8838 11.9009 14.8663 11.8531C14.8488 11.8053 14.8177 11.7636 14.7767 11.7333C14.6675 11.6347 14.5365 11.5633 14.3943 11.525C14.2522 11.4868 14.103 11.4828 13.9591 11.5133C13.9047 11.5161 13.8525 11.536 13.8103 11.5704C13.768 11.6047 13.7377 11.6516 13.7238 11.7042C13.7099 11.7569 13.7132 11.8126 13.733 11.8633C13.7529 11.9141 13.7884 11.9571 13.8344 11.9863C13.9457 12.0863 14.0795 12.1578 14.2245 12.1948C14.3694 12.2318 14.5211 12.2333 14.6667 12.199Z" fill="white"/>
<path d="M16.8666 14.6373C16.7266 14.6831 16.5993 14.7615 16.4954 14.866C16.3915 14.9706 16.3139 15.0983 16.269 15.2387C16.1993 15.499 16.357 15.653 16.6356 15.5833C16.7756 15.5373 16.9027 15.4588 17.0066 15.3543C17.1104 15.2498 17.1881 15.1222 17.2333 14.982C17.2993 14.7217 17.1416 14.5677 16.8666 14.6373Z" fill="white"/>
<path d="M14.366 17.0683C14.2265 17.114 14.0996 17.1919 13.9958 17.2958C13.892 17.3996 13.8141 17.5264 13.7684 17.666C13.6987 17.9263 13.8564 18.0803 14.135 18.0107C14.2754 17.9657 14.4031 17.8881 14.5077 17.7842C14.6122 17.6803 14.6906 17.5531 14.7364 17.413C14.7877 17.149 14.63 16.9987 14.366 17.0683Z" fill="white"/>
</g>
<defs>
<clipPath id="clip0_1_1256">
<rect width="22" height="22" fill="white"/>
</clipPath>
</defs>
</svg>
