<svg width="14" height="14" viewBox="0 0 14 14" fill="none" xmlns="http://www.w3.org/2000/svg">
<path d="M10.9375 5.6875V3.9375C10.9375 1.76269 9.17481 0 7 0C4.82519 0 3.0625 1.76269 3.0625 3.9375V5.6875C2.33756 5.6875 1.75 6.27506 1.75 7V8.3125V8.75V9.625V10.0625C1.75 12.2373 3.51269 14 5.6875 14H8.3125C10.4873 14 12.25 12.2373 12.25 10.0625V9.625V8.75V8.3125V7C12.25 6.27462 11.662 5.6875 10.9375 5.6875ZM3.9375 3.9375C3.9375 2.24612 5.30862 0.875 7 0.875C8.69137 0.875 10.0625 2.24612 10.0625 3.9375V5.6875H9.1875V3.93837C9.1875 2.73 8.20837 1.75087 7 1.75087C5.79163 1.75087 4.8125 2.73 4.8125 3.93837V5.6875H3.9375V3.9375ZM8.75 3.9375V3.93881V5.6875H5.25V3.93837V3.9375C5.25 2.97106 6.03356 2.1875 7 2.1875C7.96644 2.1875 8.75 2.97106 8.75 3.9375ZM11.375 8.3125V8.75V9.625V10.0625C11.375 11.7508 10.0008 13.125 8.3125 13.125H5.6875C3.99919 13.125 2.625 11.7508 2.625 10.0625V9.625V8.75V8.3125V7C2.625 6.7585 2.821 6.5625 3.0625 6.5625C3.35431 6.5625 3.64569 6.5625 3.9375 6.5625H10.0625C10.3539 6.5625 10.6453 6.5625 10.9375 6.5625C11.1786 6.5625 11.375 6.7585 11.375 7V8.3125Z" fill="white"/>
<path d="M7 8.3125C6.517 8.3125 6.125 8.70406 6.125 9.1875C6.125 9.45306 6.27069 9.9575 6.41681 10.3565C6.53581 10.6811 6.68544 10.9366 7 10.9366C7.34213 10.9366 7.46419 10.6837 7.58362 10.3609C7.7315 9.961 7.875 9.45394 7.875 9.1875C7.875 8.70406 7.483 8.3125 7 8.3125Z" fill="white"/>
</svg>
