<svg width="122" height="122" viewBox="0 0 122 122" fill="none" xmlns="http://www.w3.org/2000/svg">
<rect x="1" y="1" width="120" height="120" rx="18" stroke="white" stroke-width="2"/>
<path d="M25 96.4705H97.1875" stroke="white" stroke-width="2.5" stroke-miterlimit="10" stroke-linecap="round"/>
<path d="M31.5931 84.4392H56.2194C57.0563 84.4392 57.8589 84.7717 58.4507 85.3635C59.0425 85.9553 59.375 86.7579 59.375 87.5948V96.2161C59.375 96.2836 59.3482 96.3483 59.3005 96.396C59.2528 96.4437 59.1881 96.4705 59.1206 96.4705H28.6988C28.6648 96.4714 28.631 96.4655 28.5993 96.4531C28.5676 96.4407 28.5388 96.4221 28.5144 96.3984C28.4901 96.3747 28.4707 96.3464 28.4575 96.315C28.4443 96.2837 28.4375 96.2501 28.4375 96.2161V87.5948C28.4375 86.7579 28.77 85.9553 29.3618 85.3635C29.9536 84.7717 30.7562 84.4392 31.5931 84.4392Z" stroke="white" stroke-width="2.5" stroke-miterlimit="10" stroke-linecap="round"/>
<path d="M36.2183 77.5642H51.5925C51.9373 77.564 52.2788 77.6317 52.5974 77.7635C52.916 77.8953 53.2055 78.0886 53.4494 78.3323C53.6933 78.576 53.8868 78.8654 54.0188 79.184C54.1508 79.5025 54.2188 79.8439 54.2188 80.1887V84.4392H33.5938V80.1887C33.5938 79.4927 33.8703 78.8251 34.3625 78.3329C34.8547 77.8407 35.5222 77.5642 36.2183 77.5642Z" stroke="white" stroke-width="2.5" stroke-miterlimit="10" stroke-linecap="round"/>
<path d="M28.4375 89.5955H43.9062" stroke="white" stroke-width="2.5" stroke-miterlimit="10" stroke-linecap="round"/>
<path d="M33.5943 63.8584L33.6007 67.2564C33.6025 68.2056 34.3735 68.9736 35.3228 68.9718L55.9408 68.9326C56.8901 68.9308 57.6581 68.1598 57.6563 67.2106L57.6499 63.8126C57.648 62.8634 56.8771 62.0953 55.9278 62.0971L35.3097 62.1364C34.3605 62.1382 33.5925 62.9091 33.5943 63.8584Z" stroke="white" stroke-width="2.5" stroke-miterlimit="10" stroke-linecap="round"/>
<path d="M33.5944 27.7644L33.6009 31.1624C33.6027 32.1116 34.3736 32.8796 35.3229 32.8778L55.941 32.8386C56.8902 32.8368 57.6582 32.0658 57.6564 31.1166L57.65 27.7186C57.6482 26.7694 56.8772 26.0013 55.928 26.0032L35.3099 26.0424C34.3606 26.0442 33.5926 26.8152 33.5944 27.7644Z" stroke="white" stroke-width="2.5" stroke-miterlimit="10" stroke-linecap="round"/>
<path d="M37.0306 32.9097L37.0856 62.0957L54.218 62.0634L54.163 32.8774L37.0306 32.9097Z" stroke="white" stroke-width="2.5" stroke-miterlimit="10" stroke-linecap="round"/>
<path d="M54.2201 43.2022L54.2395 53.501L61.0956 53.4881L61.0762 43.1893L54.2201 43.2022Z" stroke="white" stroke-width="2.5" stroke-miterlimit="10" stroke-linecap="round"/>
<path d="M95.4687 41.4706L95.4945 55.1484C95.4977 55.3912 95.4498 55.632 95.354 55.8551C95.2582 56.0783 95.1166 56.2788 94.9384 56.4437C94.7601 56.6087 94.5493 56.7343 94.3194 56.8126C94.0895 56.8909 93.8457 56.92 93.6039 56.8981L61.0937 53.6445L61.0731 43.112L93.5781 39.7312C93.8191 39.7094 94.062 39.7382 94.2911 39.8159C94.5203 39.8935 94.7307 40.0183 94.9087 40.1821C95.0868 40.3459 95.2286 40.5452 95.3251 40.7671C95.4215 40.989 95.4704 41.2286 95.4687 41.4706Z" stroke="white" stroke-width="2.5" stroke-miterlimit="10" stroke-linecap="round"/>
<path d="M71.4062 84.4392H75.7031C76.3869 84.4392 77.0426 84.1676 77.5261 83.6841C78.0096 83.2006 78.2812 82.5448 78.2812 81.8611C78.2812 81.1773 78.0096 80.5216 77.5261 80.0381C77.0426 79.5546 76.3869 79.283 75.7031 79.283H73.9844C73.3006 79.283 72.6449 79.0113 72.1614 78.5278C71.6779 78.0444 71.4062 77.3886 71.4062 76.7048C71.4062 76.0211 71.6779 75.3653 72.1614 74.8818C72.6449 74.3983 73.3006 74.1267 73.9844 74.1267H78.2812" stroke="white" stroke-width="2.5" stroke-miterlimit="10" stroke-linecap="round"/>
<path d="M74.8438 70.6892V74.1267" stroke="white" stroke-width="2.5" stroke-miterlimit="10" stroke-linecap="round"/>
<path d="M74.8438 87.8767L74.9778 84.5732" stroke="white" stroke-width="2.5" stroke-miterlimit="10" stroke-linecap="round"/>
<path d="M25 53.5017H29.2969C29.9806 53.5017 30.6364 53.2301 31.1199 52.7466C31.6034 52.2631 31.875 51.6073 31.875 50.9236C31.875 50.2398 31.6034 49.5841 31.1199 49.1006C30.6364 48.6171 29.9806 48.3455 29.2969 48.3455H27.5781C26.8944 48.3455 26.2386 48.0738 25.7551 47.5903C25.2716 47.1069 25 46.4511 25 45.7673C25 45.0836 25.2716 44.4278 25.7551 43.9443C26.2386 43.4608 26.8944 43.1892 27.5781 43.1892H31.875" stroke="white" stroke-width="2.5" stroke-miterlimit="10" stroke-linecap="round"/>
<path d="M28.4375 39.7517V43.1892" stroke="white" stroke-width="2.5" stroke-miterlimit="10" stroke-linecap="round"/>
<path d="M28.4375 56.9392L28.5716 53.6357" stroke="white" stroke-width="2.5" stroke-miterlimit="10" stroke-linecap="round"/>
</svg>
