<svg width="16" height="16" viewBox="0 0 16 16" fill="none" xmlns="http://www.w3.org/2000/svg">
<path d="M10.8978 14.0645C10.409 14.0609 9.92226 13.9995 9.44781 13.8817C7.80937 13.4864 6.12218 12.4836 4.69781 11.0579C3.27343 9.6323 2.26937 7.9448 1.87406 6.30793C1.45781 4.58605 1.75469 3.11293 2.70906 2.15855L2.98156 1.88605C3.2288 1.63931 3.56383 1.50073 3.91312 1.50073C4.26242 1.50073 4.59745 1.63931 4.84468 1.88605L6.41062 3.45168C6.65752 3.69883 6.7962 4.03389 6.7962 4.38324C6.7962 4.73259 6.65752 5.06765 6.41062 5.3148L5.48562 6.23949C5.92906 7.01761 6.53219 7.79636 7.245 8.50918C7.95781 9.22199 8.73719 9.82543 9.515 10.2689L10.4397 9.34386C10.562 9.2215 10.7072 9.12443 10.8671 9.05821C11.0269 8.99198 11.1982 8.9579 11.3712 8.9579C11.5443 8.9579 11.7156 8.99198 11.8754 9.05821C12.0353 9.12443 12.1805 9.2215 12.3028 9.34386L13.8684 10.9095C14.1154 11.1566 14.2541 11.4916 14.2541 11.8409C14.2541 12.1902 14.1154 12.5252 13.8684 12.7723L13.5956 13.0448C12.9228 13.7189 11.9916 14.0645 10.8978 14.0645ZM3.91312 2.43761C3.86323 2.43737 3.81378 2.44708 3.76769 2.46618C3.7216 2.48529 3.67978 2.51339 3.64468 2.54886L3.37187 2.82136C2.65719 3.53605 2.44843 4.69636 2.78406 6.08668C3.13937 7.55949 4.05406 9.0898 5.35937 10.3948C6.66468 11.6998 8.19468 12.6136 9.66781 12.9701C11.0584 13.3057 12.2181 13.097 12.9328 12.3823L13.2053 12.1098C13.2765 12.0385 13.3165 11.9419 13.3165 11.8412C13.3165 11.7405 13.2765 11.6439 13.2053 11.5726L11.64 10.007C11.5687 9.93579 11.4721 9.8958 11.3714 9.8958C11.2707 9.8958 11.1741 9.93579 11.1028 10.007L9.93062 11.1792C9.86029 11.2496 9.76938 11.2957 9.67107 11.311C9.57275 11.3263 9.47212 11.3099 9.38375 11.2642C8.42281 10.7673 7.45406 10.0439 6.58219 9.17199C5.71031 8.30011 4.98844 7.33199 4.49031 6.37105C4.44457 6.28271 4.42812 6.1821 4.44334 6.08378C4.45857 5.98547 4.50467 5.89455 4.575 5.82418L5.7475 4.65199C5.8187 4.58073 5.85869 4.48413 5.85869 4.3834C5.85869 4.28267 5.8187 4.18606 5.7475 4.1148L4.18187 2.54886C4.14667 2.51346 4.10479 2.48539 4.05865 2.46629C4.01252 2.44719 3.96305 2.43745 3.91312 2.43761Z" fill="white"/>
<path d="M11.3984 8.42927C11.2741 8.42927 11.1549 8.37988 11.067 8.29197C10.9791 8.20407 10.9297 8.08484 10.9297 7.96052C10.9288 7.13818 10.6017 6.34978 10.0203 5.76828C9.43883 5.18677 8.65046 4.85964 7.82812 4.85864C7.7038 4.85864 7.58458 4.80926 7.49667 4.72135C7.40876 4.63344 7.35938 4.51421 7.35938 4.38989C7.35938 4.26557 7.40876 4.14634 7.49667 4.05844C7.58458 3.97053 7.7038 3.92114 7.82812 3.92114C10.0553 3.92114 11.8672 5.73364 11.8672 7.96052C11.8672 8.08484 11.8178 8.20407 11.7299 8.29197C11.642 8.37988 11.5228 8.42927 11.3984 8.42927Z" fill="white"/>
<path d="M13.3797 8.42907C13.2554 8.42907 13.1361 8.37969 13.0482 8.29178C12.9603 8.20387 12.9109 8.08464 12.9109 7.96032C12.9109 5.15751 10.6297 2.8772 7.82812 2.8772C7.7038 2.8772 7.58458 2.82781 7.49667 2.7399C7.40876 2.652 7.35938 2.53277 7.35938 2.40845C7.35938 2.28413 7.40876 2.1649 7.49667 2.07699C7.58458 1.98908 7.7038 1.9397 7.82812 1.9397C11.1478 1.9397 13.8484 4.64063 13.8484 7.96032C13.8484 8.08464 13.7991 8.20387 13.7111 8.29178C13.6232 8.37969 13.504 8.42907 13.3797 8.42907Z" fill="white"/>
</svg>
