<svg width="34" height="34" viewBox="0 0 34 34" xmlns="http://www.w3.org/2000/svg" fill="#6A5287">
<path d="M3.95253 25.2716L15.0238 28.236C15.2363 28.2944 15.4541 28.321 15.6666 28.321C16.0916 28.321 16.5166 28.2094 16.8938 27.9916C17.4622 27.6622 17.8713 27.131 18.0413 26.4935L18.5194 24.7085C18.9975 25.3353 19.635 25.7072 20.4478 25.7072C20.8728 25.7072 21.2978 25.5956 21.6803 25.3725L30.6425 20.1981C31.8166 19.5181 32.2257 18.0094 31.5457 16.83L25.8135 6.90627C25.4841 6.33252 24.9528 5.92877 24.3153 5.75345C23.6832 5.58345 23.0138 5.67377 22.4453 6.00314L13.4832 11.1775C13.2016 11.3369 12.9785 11.5653 12.7819 11.815L7.90503 10.5081C6.59284 10.1575 5.23816 10.9385 4.88753 12.2506L2.21003 22.2435C2.04003 22.881 2.12503 23.545 2.45441 24.1135C2.78378 24.6819 3.31503 25.091 3.95253 25.261V25.2716ZM14.0144 12.1019L22.9766 6.92752C23.3007 6.74158 23.6778 6.68845 24.0391 6.78408C24.4003 6.8797 24.7032 7.11345 24.8891 7.43752L30.6213 17.3613C31.0091 18.0306 30.7753 18.8913 30.106 19.2791L21.1438 24.4535C20.4744 24.8413 19.6191 24.6181 19.2313 23.9381L18.886 23.3378L19.5235 20.9525C19.7466 21.2766 20.0653 21.5316 20.4691 21.6378C20.6125 21.675 20.756 21.6963 20.9047 21.6963C21.6644 21.6963 22.3338 21.1863 22.5303 20.4531C22.5675 20.3097 22.5888 20.1663 22.5888 20.0175C22.5888 19.2578 22.0788 18.5885 21.3403 18.3919C21.1969 18.3547 21.0535 18.3335 20.9047 18.3335C20.6444 18.3335 20.4 18.4131 20.1769 18.5247L20.7188 16.4953C21.0694 15.1831 20.2885 13.8285 18.9763 13.4778L13.9772 12.1391C13.9772 12.1391 13.9985 12.1125 14.0144 12.1019ZM20.2832 20.0175C20.2832 19.6085 20.671 19.3163 21.0641 19.4225C21.3828 19.5075 21.59 19.8369 21.4997 20.1822C21.4094 20.501 21.0694 20.7081 20.74 20.6178C20.4691 20.5435 20.2832 20.2991 20.2832 20.0228V20.0175ZM3.23534 22.5303L5.91284 12.5375C6.08284 11.9106 6.65128 11.4963 7.26753 11.4963C7.38972 11.4963 7.51191 11.5122 7.62878 11.5441L18.6947 14.5085C19.4438 14.7103 19.8847 15.4806 19.6882 16.2244L17.0107 26.2225C16.915 26.5838 16.6813 26.8866 16.3572 27.0725C16.0332 27.2585 15.656 27.3063 15.2947 27.2106L4.22347 24.2463C3.86222 24.1506 3.55941 23.9169 3.36816 23.5928C3.18222 23.2688 3.13441 22.8916 3.23003 22.5303H3.23534Z" />
<path d="M22.7854 12.9891C22.9288 13.0263 23.0775 13.0475 23.221 13.0475C23.9647 13.0475 24.6447 12.5534 24.8466 11.8044C24.9635 11.3741 24.8997 10.9172 24.6766 10.5294C24.4535 10.1416 24.0869 9.86001 23.6566 9.74313C23.5132 9.70594 23.3697 9.68469 23.221 9.68469C22.3019 9.68469 21.5422 10.4338 21.5422 11.3688C21.5422 12.1284 22.0522 12.7978 22.7907 12.9944L22.7854 12.9891ZM23.221 10.7472C23.2741 10.7472 23.3272 10.7525 23.3804 10.7684C23.5397 10.8109 23.6725 10.9119 23.7522 11.0553C23.8372 11.1988 23.8585 11.3634 23.816 11.5228C23.731 11.8469 23.3804 12.0488 23.0563 11.9584C22.7854 11.8841 22.5994 11.6397 22.5994 11.3634C22.5994 11.0181 22.881 10.7419 23.2157 10.7419L23.221 10.7472Z" />
<path d="M10.0088 20.2193C10.471 21.0215 11.5016 21.2978 12.3038 20.8356C13.106 20.3734 13.3823 19.3375 12.9201 18.5406C12.4579 17.7437 11.4273 17.4622 10.6251 17.9243C9.8335 18.3812 9.54131 19.4065 10.0088 20.2193ZM11.1563 18.8434C11.4485 18.6734 11.831 18.7743 12.001 19.0718C12.171 19.364 12.0701 19.7465 11.7726 19.9165C11.4857 20.0865 11.0926 19.9803 10.9279 19.6934C10.7579 19.3959 10.8588 19.0187 11.1563 18.8487V18.8434Z" />
<path d="M16.1819 18.5937C16.9787 18.1315 17.2656 17.1009 16.7981 16.2987C16.5006 15.7781 15.9428 15.4594 15.3425 15.4594C15.0503 15.4594 14.7581 15.539 14.5031 15.6825C13.7116 16.1394 13.4194 17.1594 13.8869 17.9775C14.3491 18.7797 15.3797 19.0559 16.1819 18.5937ZM15.0291 16.6015C15.1247 16.5484 15.2309 16.5165 15.3372 16.5165C15.555 16.5165 15.7622 16.6334 15.8737 16.8247C16.0437 17.1169 15.9428 17.4993 15.6453 17.6693C15.3531 17.8393 14.9706 17.7384 14.8006 17.4462C14.6306 17.1487 14.7369 16.7715 15.0237 16.6015H15.0291Z" />
<path d="M8.4257 23.0722C9.22789 22.61 9.50414 21.5794 9.04195 20.7772C8.58507 19.9856 7.55976 19.6934 6.74695 20.1609C5.94476 20.6231 5.66851 21.6537 6.1307 22.4559C6.59289 23.2581 7.62351 23.5344 8.4257 23.0722ZM7.2782 21.08C7.5757 20.91 7.95289 21.0162 8.12289 21.3084C8.29289 21.6006 8.19195 21.9831 7.89445 22.1531C7.60757 22.3178 7.21976 22.2275 7.04976 21.9247C6.87976 21.6325 6.9807 21.25 7.2782 21.08Z" />
<path d="M12.8616 21.7971C12.0594 22.2593 11.7831 23.29 12.2453 24.0921C12.7075 24.8943 13.7381 25.1706 14.5403 24.7084C15.3372 24.2462 15.6241 23.2156 15.1566 22.4134C14.6997 21.6218 13.6744 21.3296 12.8616 21.7971ZM14.0091 23.7893C13.7222 23.954 13.3291 23.8478 13.1644 23.5609C12.9944 23.2687 13.1006 22.8809 13.3928 22.7162C13.6956 22.5409 14.0675 22.6525 14.2375 22.9446C14.4075 23.2368 14.3066 23.6193 14.0091 23.7893Z" />
<path d="M10.0672 16.9522C10.8587 16.4953 11.1509 15.47 10.6834 14.6572C10.2266 13.8603 9.19593 13.5735 8.38843 14.041C7.58624 14.5032 7.30999 15.5391 7.77218 16.336C8.23436 17.1382 9.2703 17.4144 10.0672 16.9522ZM8.91968 14.96C9.21718 14.7847 9.59436 14.8963 9.76436 15.1832C9.93436 15.4807 9.83343 15.8578 9.53593 16.0278C9.24374 16.1925 8.86124 16.0969 8.69124 15.7994C8.52124 15.5072 8.62218 15.1247 8.91968 14.9547V14.96Z" />
</svg>
