<svg width="20" height="20" viewBox="0 0 20 20" fill="none" xmlns="http://www.w3.org/2000/svg">
<path d="M16.22 15.2H3.77999C3.23999 15.2 2.79999 14.76 2.79999 14.22V5.78005C2.79999 5.24005 3.23999 4.80005 3.77999 4.80005H16.22C16.76 4.80005 17.2 5.24005 17.2 5.78005V14.22C17.2 14.76 16.76 15.2 16.22 15.2ZM3.77999 5.20005C3.45999 5.20005 3.19999 5.46005 3.19999 5.78005V14.22C3.19999 14.54 3.45999 14.8 3.77999 14.8H16.22C16.54 14.8 16.8 14.54 16.8 14.22V5.78005C16.8 5.46005 16.54 5.20005 16.22 5.20005H3.77999Z" fill="white" stroke="white" stroke-width="0.5"/>
<path d="M6.99999 10.14C6.73999 10.14 6.49999 10.08 6.27999 9.97999C5.67999 9.69999 5.29999 9.09999 5.29999 8.43999C5.29999 7.49999 6.05999 6.73999 6.99999 6.73999C7.93999 6.73999 8.69999 7.49999 8.69999 8.43999C8.69999 9.09999 8.31999 9.69999 7.71999 9.97999C7.49999 10.08 7.25999 10.14 6.99999 10.14ZM6.99999 7.13999C6.27999 7.13999 5.69999 7.71999 5.69999 8.43999C5.69999 8.93999 5.99999 9.39999 6.43999 9.61999C6.77999 9.77999 7.19999 9.77999 7.53999 9.61999C7.99999 9.39999 8.27999 8.93999 8.27999 8.43999C8.29999 7.71999 7.71999 7.13999 6.99999 7.13999Z" fill="white" stroke="white" stroke-width="0.5"/>
<path d="M7.14002 13.2601C7.12002 13.2601 7.10002 13.2601 7.08002 13.2601H6.94002C6.28002 13.2601 5.70002 13.2601 5.26002 13.1001C4.72002 12.9001 4.46002 12.5201 4.46002 11.8801C4.46002 10.8201 5.22002 9.90008 6.32002 9.60008L6.40002 9.58008L6.46002 9.62008C6.80002 9.78008 7.22002 9.78008 7.56002 9.62008L7.62002 9.58008L7.70002 9.60008C8.80002 9.88008 9.56002 10.8201 9.56002 11.8801C9.56002 12.5001 9.30002 12.9001 8.76002 13.1001C8.32002 13.2401 7.78002 13.2601 7.14002 13.2601ZM7.00002 12.8601H7.06002C7.66002 12.8601 8.22002 12.8601 8.60002 12.7201C8.98002 12.5801 9.14002 12.3401 9.14002 11.8801C9.14002 11.0201 8.54002 10.2601 7.66002 10.0201C7.24002 10.2001 6.76002 10.2001 6.36002 10.0201C5.48002 10.2801 4.88002 11.0401 4.88002 11.8801C4.88002 12.3401 5.04002 12.5801 5.42002 12.7201C5.80002 12.8601 6.36002 12.8601 6.96002 12.8601H7.00002Z" fill="white" stroke="white" stroke-width="0.5"/>
<path d="M15.34 10.5201H10.74C10.62 10.5201 10.54 10.4401 10.54 10.3201C10.54 10.2001 10.62 10.1201 10.74 10.1201H15.34C15.46 10.1201 15.54 10.2001 15.54 10.3201C15.54 10.4401 15.44 10.5201 15.34 10.5201Z" fill="white" stroke="white" stroke-width="0.5"/>
<path d="M15.34 9.31992H10.74C10.62 9.31992 10.54 9.23992 10.54 9.11992C10.54 8.99992 10.62 8.91992 10.74 8.91992H15.34C15.46 8.91992 15.54 8.99992 15.54 9.11992C15.54 9.23992 15.44 9.31992 15.34 9.31992Z" fill="white" stroke="white" stroke-width="0.5"/>
<path d="M15.34 8.11997H10.74C10.62 8.11997 10.54 8.03997 10.54 7.91997C10.54 7.79997 10.62 7.71997 10.74 7.71997H15.34C15.46 7.71997 15.54 7.79997 15.54 7.91997C15.54 8.03997 15.44 8.11997 15.34 8.11997Z" fill="white" stroke="white" stroke-width="0.5"/>
</svg>
