<svg width="16" height="16" viewBox="0 0 16 16" fill="none" xmlns="http://www.w3.org/2000/svg">
<path d="M11.87 8.09011C11.8233 8.04381 11.7681 8.00716 11.7073 7.98223C11.6465 7.95731 11.5814 7.9446 11.5157 7.94483C11.45 7.94506 11.385 7.95823 11.3244 7.98359C11.2638 8.00894 11.2088 8.04599 11.1625 8.0926C11.1162 8.13922 11.0795 8.1945 11.0546 8.25529C11.0297 8.31608 11.017 8.38118 11.0172 8.44687C11.0174 8.51257 11.0306 8.57758 11.0559 8.63819C11.0813 8.69879 11.1184 8.75381 11.165 8.80011C11.5881 9.21871 11.9239 9.71708 12.153 10.2664C12.3822 10.8156 12.5001 11.4049 12.5 12.0001C12.5 12.6101 10.745 13.5001 7.99997 13.5001C5.25497 13.5001 3.49997 12.6101 3.49997 12.0001C3.49918 11.4089 3.6149 10.8233 3.84054 10.2768C4.06617 9.73025 4.39729 9.23358 4.81497 8.8151C4.9081 8.72142 4.96037 8.5947 4.96037 8.4626C4.96037 8.33051 4.9081 8.20379 4.81497 8.1101C4.72129 8.01698 4.59456 7.96471 4.46247 7.96471C4.33038 7.96471 4.20365 8.01698 4.10997 8.1101C3.59752 8.61969 3.19134 9.22593 2.91497 9.89369C2.63859 10.5614 2.49754 11.2774 2.49997 12.0001C2.49997 13.6251 5.33497 14.5001 7.99997 14.5001C10.665 14.5001 13.5 13.6251 13.5 12.0001C13.5019 11.2727 13.3587 10.5523 13.0788 9.88091C12.799 9.20954 12.388 8.60073 11.87 8.09011Z" fill="white"/>
<path d="M8 8.5C8.69223 8.5 9.36892 8.29473 9.9445 7.91015C10.5201 7.52556 10.9687 6.97894 11.2336 6.33939C11.4985 5.69985 11.5678 4.99612 11.4327 4.31719C11.2977 3.63825 10.9644 3.01461 10.4749 2.52513C9.98539 2.03564 9.36175 1.7023 8.68282 1.56725C8.00388 1.4322 7.30015 1.50152 6.66061 1.76642C6.02107 2.03133 5.47444 2.47993 5.08986 3.05551C4.70527 3.63108 4.5 4.30777 4.5 5C4.5 5.92826 4.86875 6.8185 5.52513 7.47487C6.1815 8.13125 7.07174 8.5 8 8.5ZM8 2.5C8.49445 2.5 8.9778 2.64662 9.38893 2.92133C9.80005 3.19603 10.1205 3.58648 10.3097 4.04329C10.4989 4.50011 10.5484 5.00277 10.452 5.48773C10.3555 5.97268 10.1174 6.41814 9.76777 6.76777C9.41814 7.1174 8.97268 7.3555 8.48773 7.45196C8.00277 7.54843 7.50011 7.49892 7.04329 7.3097C6.58648 7.12048 6.19603 6.80005 5.92133 6.38893C5.64662 5.9778 5.5 5.49445 5.5 5C5.5 4.33696 5.76339 3.70108 6.23223 3.23223C6.70107 2.76339 7.33696 2.5 8 2.5Z" fill="white"/>
</svg>
