<svg width="14" height="14" viewBox="0 0 14 14" fill="none" xmlns="http://www.w3.org/2000/svg">
<path d="M10.1855 6.32736L4.93528 1.95217C4.7568 1.80454 4.52708 1.73364 4.29644 1.75502C4.06581 1.7764 3.85304 1.8883 3.70473 2.06622C3.55642 2.24414 3.48467 2.47359 3.50517 2.70431C3.52568 2.93502 3.63678 3.14821 3.81414 3.29719L8.25768 6.9999L3.81414 10.7026C3.63609 10.8514 3.52438 11.0647 3.50354 11.2958C3.4827 11.5269 3.55444 11.7568 3.70299 11.935C3.85155 12.1132 4.06478 12.2252 4.29583 12.2463C4.52689 12.2674 4.75688 12.196 4.93528 12.0476L10.1855 7.67238C10.2839 7.59013 10.3631 7.48728 10.4175 7.37107C10.4718 7.25487 10.5 7.12815 10.5 6.99987C10.5 6.87159 10.4718 6.74487 10.4175 6.62867C10.3631 6.51246 10.2839 6.40961 10.1855 6.32736Z" fill="white"/>
</svg>
