<svg width="18" height="18" viewBox="0 0 18 18" fill="none" xmlns="http://www.w3.org/2000/svg">
<path d="M4.4438 11.2781C3.2063 11.2781 2.22192 10.2937 2.22192 9.05623C2.22192 7.81873 3.2063 6.83435 4.4438 6.83435C5.6813 6.83435 6.66568 7.81873 6.66568 9.05623C6.66568 10.2656 5.6813 11.2781 4.4438 11.2781ZM4.4438 7.64998C3.68442 7.64998 3.06567 8.26873 3.06567 9.02811C3.06567 9.78748 3.68442 10.4062 4.4438 10.4062C5.20317 10.4062 5.82193 9.78748 5.82193 9.02811C5.82193 8.29686 5.20317 7.64998 4.4438 7.64998Z" fill="white"/>
<path d="M13.4719 6.74999C12.2344 6.74999 11.25 5.76562 11.25 4.52812C11.25 3.29062 12.2344 2.30624 13.4719 2.30624C14.7094 2.30624 15.6938 3.29062 15.6938 4.52812C15.6938 5.76562 14.6812 6.74999 13.4719 6.74999ZM13.4719 3.14999C12.7125 3.14999 12.0938 3.76874 12.0938 4.52812C12.0938 5.28749 12.7125 5.90624 13.4719 5.90624C14.2312 5.90624 14.85 5.28749 14.85 4.52812C14.85 3.76874 14.2312 3.14999 13.4719 3.14999Z" fill="white"/>
<path d="M13.4719 15.7781C12.2344 15.7781 11.25 14.7937 11.25 13.5562C11.25 12.3187 12.2344 11.3344 13.4719 11.3344C14.7094 11.3344 15.6938 12.3187 15.6938 13.5562C15.6938 14.7937 14.6812 15.7781 13.4719 15.7781ZM13.4719 12.1781C12.7125 12.1781 12.0938 12.7969 12.0938 13.5562C12.0938 14.3156 12.7125 14.9344 13.4719 14.9344C14.2312 14.9344 14.85 14.3156 14.85 13.5562C14.85 12.7969 14.2312 12.1781 13.4719 12.1781Z" fill="white"/>
<path d="M11.6438 13.1625L5.8501 10.2656L6.24385 9.44998L12.0657 12.3469L11.6438 13.1625Z" fill="white"/>
<path d="M6.24385 8.63436L5.8501 7.84685L11.6438 4.94998L12.0657 5.73748L6.24385 8.63436Z" fill="white"/>
</svg>
