<svg width="33" height="34" viewBox="0 0 33 34" xmlns="http://www.w3.org/2000/svg" fill="#075E54">
<path fill-rule="evenodd" clip-rule="evenodd" d="M16.8082 0.00012207C7.87743 0.00012207 0.63782 7.41512 0.63782 16.5626C0.63782 19.6915 1.48564 22.6178 2.95808 25.1143L0.0397949 34.0001L8.99239 31.064C11.3089 32.3763 13.973 33.1242 16.8082 33.1242C25.7384 33.1242 32.978 25.7095 32.978 16.5627C32.9781 7.41512 25.7385 0.00012207 16.8082 0.00012207ZM16.8082 30.4864C14.0466 30.4864 11.4754 29.638 9.32862 28.1836L4.10425 29.8973L5.8022 24.726C4.1748 22.4305 3.21322 19.6097 3.21322 16.5622C3.21322 8.88405 9.31186 2.63757 16.8082 2.63757C24.3041 2.63757 30.4029 8.88405 30.4029 16.5622C30.4029 24.24 24.3043 30.4864 16.8082 30.4864ZM13.0156 9.71172C12.7537 9.06513 12.5531 9.04322 12.1485 9.02353C12.0097 9.01671 11.8592 9.0102 11.6946 9.0102C11.1733 9.0102 10.6328 9.16744 10.3071 9.50873C9.91075 9.92404 8.91968 10.8968 8.91968 12.8942C8.91968 14.8919 10.3401 16.8222 10.538 17.0931C10.7364 17.3638 13.3082 21.523 17.3095 23.2211C20.4326 24.5462 21.36 24.4281 22.0725 24.2685C23.1092 24.0367 24.4111 23.2546 24.7414 22.307C25.0717 21.3588 25.0717 20.5461 24.9727 20.3773C24.8735 20.2078 24.6093 20.1066 24.2129 19.903C23.8165 19.7001 21.8675 18.718 21.5042 18.5828C21.1408 18.4474 20.8049 18.4887 20.5254 18.8845C20.1398 19.4313 19.7688 19.9932 19.4617 20.3264C19.2205 20.5878 18.8326 20.6243 18.4989 20.479C18.0602 20.2876 16.8253 19.8468 15.311 18.4642C14.1329 17.3883 13.3373 16.0593 13.106 15.6527C12.8747 15.2468 13.0856 15.0044 13.2639 14.7835C13.4671 14.5313 13.6546 14.3502 13.8528 14.1135C14.051 13.8763 14.1617 13.75 14.2938 13.4787C14.4259 13.2081 14.337 12.9287 14.2379 12.7254C14.1386 12.5221 13.3449 10.525 13.0156 9.71172Z" />
</svg>
