<svg width="91" height="94" viewBox="0 0 91 94" fill="none" xmlns="http://www.w3.org/2000/svg">
<path fill-rule="evenodd" clip-rule="evenodd" d="M46.3269 0C21.6534 0 1.65219 20.5003 1.65219 45.7904C1.65219 54.4408 3.9945 62.5312 8.06248 69.4332L0 94L24.7338 85.8826C31.1337 89.5107 38.4941 91.5783 46.3269 91.5783C70.9988 91.5783 91 71.0788 91 45.7908C91.0004 20.5003 70.9992 0 46.3269 0ZM46.3269 84.2857C38.6973 84.2857 31.5937 81.9401 25.6627 77.9191L11.2291 82.6569L15.9201 68.3599C11.424 62.0133 8.76736 54.2148 8.76736 45.7891C8.76736 24.5614 25.6164 7.29176 46.3269 7.29176C67.0362 7.29176 83.8856 24.5614 83.8856 45.7891C83.8856 67.016 67.0366 84.2857 46.3269 84.2857ZM35.849 26.8497C35.1254 25.0621 34.571 25.0015 33.4532 24.9471C33.0698 24.9282 32.6541 24.9102 32.1992 24.9102C30.7591 24.9102 29.2658 25.3449 28.366 26.2885C27.271 27.4367 24.5329 30.1262 24.5329 35.6483C24.5329 41.1713 28.4571 46.508 29.0038 47.2571C29.5522 48.0054 36.6574 59.5044 47.7119 64.1993C56.3403 67.8626 58.9023 67.5363 60.8707 67.095C63.735 66.454 67.3318 64.2918 68.2443 61.6719C69.1569 59.0505 69.1569 56.8035 68.8833 56.3369C68.6093 55.8682 67.8793 55.5886 66.7842 55.0257C65.6891 54.4645 60.3044 51.7493 59.3008 51.3756C58.2968 51.0014 57.3687 51.1156 56.5967 52.2098C55.5312 53.7215 54.5064 55.275 53.6577 56.1961C52.9916 56.919 51.9197 57.0197 50.9979 56.6181C49.7858 56.0888 46.374 54.8702 42.1906 51.0477C38.9358 48.0733 36.7376 44.399 36.0986 43.2749C35.4596 42.1525 36.0423 41.4824 36.5347 40.8716C37.0963 40.1745 37.6142 39.6739 38.1618 39.0193C38.7093 38.3635 39.0152 38.0143 39.3803 37.2644C39.7453 36.5161 39.4997 35.7437 39.2257 35.1816C38.9513 34.6196 36.7588 29.0983 35.849 26.8497Z" fill="white"/>
</svg>
