<svg width="20" height="20" viewBox="0 0 20 20" xmlns="http://www.w3.org/2000/svg" fill="#F58534">
<path fill-rule="evenodd" clip-rule="evenodd" d="M19.5833 16.6667C19.5833 17.8175 18.6508 18.75 17.5 18.75H2.49996C1.34913 18.75 0.416626 17.8175 0.416626 16.6667V4.58335C0.416626 3.66294 1.16288 2.91669 2.08329 2.91669H10.4879L13.8625 1.69419C14.0762 1.61627 14.3129 1.72669 14.3908 1.9396L14.7462 2.91669H16.25C17.1704 2.91669 17.9166 3.66294 17.9166 4.58335V5.41669C18.837 5.41669 19.5833 6.16294 19.5833 7.08335V16.6667ZM2.08329 3.75002C1.62329 3.75002 1.24996 4.12335 1.24996 4.58335C1.24996 5.04335 1.62329 5.41669 2.08329 5.41669H3.51871H3.59746C3.60288 5.4146 3.60621 5.41002 3.61163 5.40794L8.18746 3.75002H2.08329ZM14.1991 3.82544L13.7566 2.6071L12.9016 2.91669H12.9029L10.6054 3.75002H10.6012L6.00163 5.41669H14.7775L14.1991 3.82544ZM17.0833 4.58335C17.0833 4.12335 16.71 3.75002 16.25 3.75002H15.0487L15.6545 5.41669H17.0833V4.58335ZM17.9166 6.25002H2.08329C1.77829 6.25002 1.49579 6.1621 1.24996 6.01877V16.6667C1.24996 17.3571 1.80996 17.9167 2.49996 17.9167H17.5C18.1904 17.9167 18.75 17.3571 18.75 16.6667V13.75H17.0833C16.1629 13.75 15.4166 13.0038 15.4166 12.0834C15.4166 11.1629 16.1629 10.4167 17.0833 10.4167H18.75V7.08335C18.75 6.62335 18.3766 6.25002 17.9166 6.25002ZM18.75 12.9167V11.25H17.0833C16.6233 11.25 16.25 11.6234 16.25 12.0834C16.25 12.5434 16.6233 12.9167 17.0833 12.9167H18.75ZM17.0833 11.6667H17.9166V12.5H17.0833V11.6667Z"/>
</svg>
